<svg width="42" height="42" viewBox="0 0 42 42" fill="none" xmlns="http://www.w3.org/2000/svg">
<path fill-rule="evenodd" clip-rule="evenodd" d="M21 0.375C9.3975 0.375 0 9.7725 0 21.375C0 30.6675 6.01125 38.5163 14.3587 41.2988C15.4087 41.4825 15.8025 40.8525 15.8025 40.3013C15.8025 39.8025 15.7763 38.1488 15.7763 36.39C10.5 37.3613 9.135 35.1037 8.715 33.9225C8.47875 33.3187 7.455 31.455 6.5625 30.9562C5.8275 30.5625 4.7775 29.5912 6.53625 29.565C8.19 29.5387 9.37125 31.0875 9.765 31.7175C11.655 34.8937 14.6738 34.0013 15.8813 33.45C16.065 32.085 16.6162 31.1663 17.22 30.6412C12.5475 30.1162 7.665 28.305 7.665 20.2725C7.665 17.9888 8.47875 16.0987 9.8175 14.6287C9.6075 14.1037 8.8725 11.9513 10.0275 9.06375C10.0275 9.06375 11.7863 8.5125 15.8025 11.2163C17.4825 10.7438 19.2675 10.5075 21.0525 10.5075C22.8375 10.5075 24.6225 10.7438 26.3025 11.2163C30.3188 8.48625 32.0775 9.06375 32.0775 9.06375C33.2325 11.9513 32.4975 14.1037 32.2875 14.6287C33.6263 16.0987 34.44 17.9625 34.44 20.2725C34.44 28.3312 29.5312 30.1162 24.8588 30.6412C25.62 31.2975 26.2763 32.5575 26.2763 34.5262C26.2763 37.335 26.25 39.5925 26.25 40.3013C26.25 40.8525 26.6438 41.5088 27.6938 41.2988C35.9888 38.5163 42 30.6413 42 21.375C42 9.7725 32.6025 0.375 21 0.375Z" fill="#000c1a"/>
</svg>
