<svg width="42" height="43" viewBox="0 0 42 43" fill="none" xmlns="http://www.w3.org/2000/svg">
<path d="M21.002 0.375C15.2987 0.375 14.5829 0.399938 12.3429 0.501875C10.1072 0.60425 8.58121 0.958188 7.24595 1.4775C5.86475 2.01388 4.69311 2.73138 3.52585 3.89906C2.35771 5.06631 1.6402 6.23794 1.10207 7.61869C0.581443 8.95437 0.227065 10.4808 0.126439 12.7156C0.0262501 14.9556 0 15.6718 0 21.375C0 27.0783 0.0253757 27.7918 0.126877 30.0318C0.22969 32.2674 0.583631 33.7934 1.10251 35.1287C1.63933 36.5099 2.35684 37.6815 3.52454 38.8488C4.69136 40.0169 5.863 40.7361 7.24333 41.2725C8.57946 41.7918 10.1059 42.1457 12.3411 42.2481C14.5812 42.3501 15.2965 42.375 20.9993 42.375C26.7031 42.375 27.4167 42.3501 29.6567 42.2481C31.8923 42.1457 33.4201 41.7918 34.7562 41.2725C36.137 40.7361 37.3069 40.0169 38.4737 38.8488C39.6419 37.6815 40.3594 36.5099 40.8975 35.1291C41.4137 33.7934 41.7681 32.267 41.8731 30.0323C41.9738 27.7923 42 27.0783 42 21.375C42 15.6718 41.9738 14.956 41.8731 12.716C41.7681 10.4804 41.4137 8.95437 40.8975 7.61912C40.3594 6.23794 39.6419 5.06631 38.4737 3.89906C37.3056 2.73094 36.1374 2.01344 34.7549 1.4775C33.4162 0.958188 31.8893 0.60425 29.6536 0.501875C27.4136 0.399938 26.7005 0.375 20.9954 0.375H21.002ZM19.1181 4.15937C19.6772 4.1585 20.3011 4.15937 21.002 4.15937C26.609 4.15937 27.2736 4.1795 29.4878 4.28013C31.5353 4.37375 32.6466 4.71588 33.3868 5.00331C34.3669 5.38394 35.0656 5.83894 35.8001 6.57394C36.5351 7.30894 36.9901 8.00894 37.3716 8.98894C37.6591 9.72831 38.0016 10.8396 38.0948 12.8871C38.1955 15.1008 38.2173 15.7658 38.2173 21.3702C38.2173 26.9746 38.1955 27.6396 38.0948 29.8533C38.0012 31.9008 37.6591 33.0121 37.3716 33.7514C36.991 34.7314 36.5351 35.4292 35.8001 36.1638C35.0651 36.8988 34.3673 37.3538 33.3868 37.7344C32.6475 38.0232 31.5353 38.3644 29.4878 38.4581C27.274 38.5587 26.609 38.5806 21.002 38.5806C15.3945 38.5806 14.7299 38.5587 12.5161 38.4581C10.4686 38.3636 9.35735 38.0214 8.61665 37.734C7.63664 37.3534 6.93663 36.8984 6.20163 36.1634C5.46662 35.4284 5.01161 34.7301 4.63011 33.7497C4.34267 33.0103 4.0001 31.8991 3.90692 29.8516C3.80629 27.6378 3.78616 26.9728 3.78616 21.3649C3.78616 15.7571 3.80629 15.0956 3.90692 12.8818C4.00054 10.8343 4.34267 9.72306 4.63011 8.98281C5.01074 8.00281 5.46662 7.30281 6.20163 6.56781C6.93663 5.83281 7.63664 5.37781 8.61665 4.99631C9.35691 4.70756 10.4686 4.36631 12.5161 4.27225C14.4534 4.18475 15.2042 4.1585 19.1181 4.15413V4.15937ZM32.2117 7.64625C30.8204 7.64625 29.6917 8.77369 29.6917 10.1654C29.6917 11.5566 30.8204 12.6854 32.2117 12.6854C33.603 12.6854 34.7317 11.5566 34.7317 10.1654C34.7317 8.77412 33.603 7.64538 32.2117 7.64538V7.64625ZM21.002 10.5906C15.0462 10.5906 10.2175 15.4193 10.2175 21.375C10.2175 27.3307 15.0462 32.1572 21.002 32.1572C26.9577 32.1572 31.7847 27.3307 31.7847 21.375C31.7847 15.4193 26.9577 10.5906 21.002 10.5906ZM21.002 14.375C24.8678 14.375 28.002 17.5088 28.002 21.375C28.002 25.2407 24.8678 28.375 21.002 28.375C17.1357 28.375 14.0019 25.2407 14.0019 21.375C14.0019 17.5088 17.1357 14.375 21.002 14.375Z" fill="#000c1a"/>
</svg>
