<?xml version="1.0" encoding="UTF-8"?>
<!-- Generator: Adobe Illustrator 25.2.3, SVG Export Plug-In . SVG Version: 6.00 Build 0)  -->
<svg version="1.1" id="Layer_1" xmlns="http://www.w3.org/2000/svg" xmlns:xlink="http://www.w3.org/1999/xlink" x="0px" y="0px" viewBox="0 0 1080 720" style="enable-background:new 0 0 1080 720;" xml:space="preserve">
<style type="text/css">
	.st0{fill:#00396B;}
	.st1{fill:#2CB34A;}
	.st2{fill:#FDB714;}
	.st3{fill:#C8531F;}
	.st4{fill:#3CA5D5;}
	.st5{fill:#C7C8CA;}
</style>
<g>
	<path class="st0" d="M420.7,320.3c-14.5,0-29.1,5.5-39.4,16.4v-14.5h-38.4V480h17.9l0.2-0.1c11.7,0,21.2-9.5,21.2-21.2l0,0v-74.1   c0-21.5,13.9-28.8,26.4-28.8c12.4,0,26.1,7.3,26.1,28.8V480h17.9l0.2-0.1c11.7,0,21.2-9.5,21.2-21.2v-0.1v-79.5   c0-17.3-3.3-32.1-16-44.8C449.2,325.5,436.4,320.3,420.7,320.3 M592.8,479.9h-17.9v-95.4v-62.4h39.4v136.4v0.1   c0,11.7-9.5,21.2-21.2,21.2L592.8,479.9z M522.6,479.9h-17.9V303.6h-70.1v-39.4h70.1h39.4h70.1v39.4h-70.1v154.9v0.1   c0,11.7-9.5,21.2-21.2,21.2L522.6,479.9z M191,264.3h-47.5L65.8,369.4l81.6,110.5h48.1l-84.4-110.5L191,264.3z M19.8,264.3v215.6   h20.5l0.2-0.1c11.7,0,21.2-9.5,21.2-21.2l0.1-0.7v-88.6v-105H19.8z M278.5,421.8c0,9.7-1.5,16.1-5.8,20c-7,6.7-13.9,7.6-24.8,7.6   c-15.5,0-22.7-7.3-22.7-18.2c0-11.2,7.9-17.9,22.1-17.9h31.2L278.5,421.8L278.5,421.8z M250.7,320.3c-26.4,0-41.5,4.8-56.9,21.8   l25.1,24.5c8.2-9.4,15.1-13,30.3-13c20.9,0,29.4,7.6,29.4,24.8v7.9h-37.3c-36.6,0-53.9,20.6-53.9,45.7c0,13.9,4.6,23.2,13,31.9   c13.7,13.7,27.5,17.4,52.2,17.4c24.8,0,38.5-3.7,52.2-17.4c8.5-8.8,13-26.6,13-40.5V376C317.9,339.1,294.9,320.3,250.7,320.3    M963,481.4c-44.2,0-67.2-18.8-67.2-55.7v-47.5c0-13.9,4.5-31.7,13-40.5c13.7-13.7,27.5-17.4,52.2-17.4c24.8,0,38.5,3.7,52.2,17.4   c8.5,8.8,13,18,13,31.9c0,25.1-17.3,45.7-53.9,45.7h-37.2v7.9c0,17.3,8.5,24.8,29.4,24.8c15.1,0,22.1-3.6,30.3-13l25.1,24.5   C1004.5,476.6,989.4,481.4,963,481.4 M965.8,352.4c-10.9,0-17.9,0.9-24.8,7.6c-4.2,3.9-5.8,10.3-5.8,20v8.5h31.2   c14.2,0,22.1-6.7,22.1-17.9C988.5,359.7,981.2,352.4,965.8,352.4 M849.6,479.9h-17.8v-95.4c0-21.5-13.6-28.8-26.1-28.8   c-12.1,0-26.3,7.3-26.3,27.9v74.6l-0.1,0.4c0,11.7-9.5,21.2-21.2,21.2l-0.2,0.1H740v-95.4c0-21.5-13.6-28.8-26-28.8   s-26.4,7.3-26.4,28.8v74.6c-0.3,11.5-9.6,20.7-21.2,20.7l-0.2,0.1h-18V322.1h38.4v14.5c10.3-10.6,24.8-16.3,39.4-16.3   c17.6,0,31.8,6.4,41.8,20c13.3-13.9,27.5-20,47.2-20c15.8,0,30,5.2,38.8,13.9c12.7,12.7,17.3,27.6,17.3,44.8v79.1l-0.1,0.4   c0,11.7-9.5,21.2-21.2,21.2L849.6,479.9z"/>
</g>
<polygon class="st1" points="995.2,254 979.2,254 979.2,237.9 970.1,237.9 970.1,254 954.1,254 954.1,263.1 970.1,263.1   970.1,279.1 979.2,279.1 979.2,263.1 995.2,263.1 "/>
<polygon class="st2" points="741.1,213 702.4,213 702.4,174.4 680.4,174.4 680.4,213 641.8,213 641.8,235 680.4,235 680.4,273.6   702.4,273.6 702.4,235 741.1,235 "/>
<polygon class="st3" points="860.9,166.6 833.6,166.6 833.6,139.4 818.1,139.4 818.1,166.6 790.9,166.6 790.9,182.1 818.1,182.1   818.1,209.4 833.6,209.4 833.6,182.1 860.9,182.1 "/>
<polygon class="st4" points="951.6,203 916.2,203 916.2,167.6 896,167.6 896,203 860.6,203 860.6,223.1 896,223.1 896,258.5   916.2,258.5 916.2,223.1 951.6,223.1 "/>
<polygon class="st5" points="1008.4,105.6 1008.4,131.9 982.1,131.9 982.1,146.8 1008.4,146.8 1008.4,173.1 1023.4,173.1   1023.4,146.8 1049.6,146.8 1049.6,131.9 1023.4,131.9 1023.4,105.6 "/>
<g>
	<path class="st0" d="M384.7,577.7c0,0.2-0.1,0.4-0.2,0.6c-0.1,0.2-0.3,0.3-0.6,0.4c-0.3,0.1-0.6,0.2-1.1,0.2   c-0.4,0.1-1,0.1-1.6,0.1c-0.7,0-1.3,0-1.7-0.1s-0.8-0.1-1.1-0.2c-0.3-0.1-0.5-0.2-0.6-0.4s-0.2-0.4-0.2-0.6v-23.4h-24v23.4   c0,0.2-0.1,0.4-0.2,0.6c-0.1,0.2-0.3,0.3-0.6,0.4c-0.3,0.1-0.6,0.2-1.1,0.2c-0.4,0.1-1,0.1-1.7,0.1s-1.2,0-1.7-0.1   s-0.8-0.1-1.1-0.2c-0.3-0.1-0.5-0.2-0.6-0.4s-0.2-0.4-0.2-0.6v-50.5c0-0.2,0.1-0.4,0.2-0.6c0.1-0.2,0.3-0.3,0.6-0.4   c0.3-0.1,0.6-0.2,1.1-0.2c0.5-0.1,1-0.1,1.7-0.1s1.2,0,1.7,0.1c0.4,0.1,0.8,0.1,1.1,0.2c0.3,0.1,0.5,0.2,0.6,0.4s0.2,0.4,0.2,0.6   v21.1h24v-21.1c0-0.2,0.1-0.4,0.2-0.6c0.1-0.2,0.3-0.3,0.6-0.4c0.3-0.1,0.6-0.2,1.1-0.2c0.4-0.1,1-0.1,1.7-0.1s1.2,0,1.6,0.1   s0.8,0.1,1.1,0.2c0.3,0.1,0.5,0.2,0.6,0.4s0.2,0.4,0.2,0.6V577.7z"/>
	<path class="st0" d="M423.4,559.5c0-2-0.2-3.9-0.6-5.6c-0.4-1.8-1-3.3-1.8-4.6s-2-2.4-3.4-3.2c-1.5-0.8-3.3-1.2-5.4-1.2   c-2,0-3.7,0.4-5.2,1.1c-1.4,0.7-2.6,1.7-3.6,3c-0.9,1.3-1.6,2.8-2.1,4.6c-0.4,1.8-0.7,3.7-0.7,5.8c0,2,0.2,3.9,0.6,5.7   s1,3.3,1.9,4.6s2,2.4,3.5,3.1c1.4,0.8,3.3,1.2,5.4,1.2c2,0,3.7-0.3,5.1-1.1c1.5-0.7,2.6-1.7,3.6-3c0.9-1.3,1.6-2.8,2.1-4.6   C423.2,563.6,423.4,561.6,423.4,559.5 M430.3,559c0,3-0.4,5.7-1.2,8.2c-0.8,2.5-2,4.7-3.5,6.5c-1.6,1.8-3.5,3.2-5.9,4.3   c-2.3,1-5.1,1.5-8.2,1.5c-3,0-5.6-0.4-7.9-1.3c-2.2-0.9-4.1-2.2-5.6-3.9s-2.6-3.8-3.3-6.2s-1.1-5.2-1.1-8.3c0-3,0.4-5.7,1.2-8.2   s1.9-4.7,3.5-6.5s3.5-3.2,5.8-4.2s5.1-1.5,8.2-1.5c3,0,5.6,0.4,7.9,1.3c2.2,0.9,4.1,2.2,5.6,3.9s2.6,3.8,3.4,6.2   C430,553.2,430.3,556,430.3,559"/>
	<path class="st0" d="M489.5,541.1c0,0.2,0,0.4-0.1,0.7s-0.1,0.6-0.3,1l-10.8,34.8c-0.1,0.3-0.2,0.5-0.4,0.7   c-0.2,0.2-0.4,0.3-0.7,0.4c-0.3,0.1-0.7,0.2-1.3,0.2c-0.5,0-1.2,0.1-2,0.1s-1.6,0-2.1-0.1c-0.6-0.1-1-0.1-1.4-0.2   c-0.3-0.1-0.6-0.3-0.7-0.4c-0.2-0.2-0.3-0.4-0.4-0.7l-7.7-26.6l-0.1-0.4l-0.1,0.4l-7.1,26.6c-0.1,0.3-0.2,0.5-0.4,0.7   c-0.2,0.2-0.4,0.3-0.8,0.4c-0.4,0.1-0.8,0.2-1.4,0.2s-1.2,0.1-2.1,0.1c-0.8,0-1.5,0-2.1-0.1c-0.5-0.1-1-0.1-1.3-0.2   c-0.3-0.1-0.6-0.3-0.7-0.4c-0.2-0.2-0.3-0.4-0.4-0.7l-10.7-34.8c-0.1-0.4-0.2-0.7-0.3-1c-0.1-0.3-0.1-0.5-0.1-0.7s0.1-0.4,0.2-0.6   c0.1-0.1,0.3-0.3,0.6-0.4c0.3-0.1,0.6-0.2,1-0.2s1,0,1.6,0c0.8,0,1.4,0,1.8,0.1c0.5,0,0.8,0.1,1.1,0.2c0.2,0.1,0.4,0.2,0.5,0.4   s0.2,0.4,0.3,0.6l8.8,30.2l0.1,0.4l0.1-0.4l8.1-30.2c0.1-0.2,0.1-0.4,0.3-0.6c0.1-0.2,0.3-0.3,0.5-0.4c0.2-0.1,0.6-0.2,1-0.2   s1-0.1,1.6-0.1c0.7,0,1.2,0,1.6,0.1c0.4,0,0.7,0.1,1,0.2c0.2,0.1,0.4,0.2,0.5,0.4s0.2,0.4,0.2,0.6l8.8,30.3l0.1,0.4v-0.4l8.7-30.2   c0.1-0.2,0.1-0.4,0.3-0.6c0.1-0.2,0.3-0.3,0.6-0.4c0.3-0.1,0.6-0.2,1.1-0.2c0.4,0,1-0.1,1.7-0.1c0.6,0,1.2,0,1.6,0s0.7,0.1,0.9,0.2   c0.2,0.1,0.4,0.2,0.5,0.4C489.4,540.6,489.5,540.8,489.5,541.1"/>
	<path class="st0" d="M538.1,559.5c0-1.6-0.1-3-0.3-4.5c-0.2-1.4-0.6-2.7-1.2-3.8c-0.6-1.1-1.3-2-2.2-2.7s-2.1-1-3.4-1   c-0.7,0-1.3,0.1-2,0.3s-1.3,0.5-2,1s-1.4,1.1-2.1,1.8c-0.7,0.7-1.5,1.6-2.3,2.7v12c1.4,1.8,2.8,3.3,4.1,4.2c1.3,1,2.7,1.4,4.1,1.4   c1.3,0,2.5-0.3,3.4-1s1.7-1.6,2.3-2.6c0.6-1.1,1.1-2.3,1.3-3.7C538,562.3,538.1,560.9,538.1,559.5 M548.8,558.8   c0,3.2-0.4,6.1-1.1,8.7c-0.7,2.6-1.7,4.8-3.1,6.6c-1.3,1.8-3,3.2-4.9,4.2s-4.1,1.5-6.6,1.5c-1.2,0-2.4-0.1-3.4-0.3   c-1.1-0.2-2.1-0.6-3-1.1c-1-0.5-1.9-1.2-2.8-2c-0.9-0.8-1.9-1.7-2.9-2.8v3.9c0,0.3-0.1,0.5-0.2,0.7c-0.1,0.2-0.4,0.4-0.7,0.5   s-0.8,0.2-1.4,0.3c-0.6,0.1-1.3,0.1-2.1,0.1s-1.5,0-2.1-0.1s-1-0.1-1.3-0.3c-0.3-0.1-0.6-0.3-0.7-0.5c-0.1-0.2-0.2-0.4-0.2-0.7V524   c0-0.3,0.1-0.5,0.2-0.7c0.2-0.2,0.4-0.4,0.8-0.5c0.4-0.1,0.9-0.3,1.6-0.3c0.6-0.1,1.5-0.1,2.5-0.1s1.8,0,2.5,0.1s1.2,0.2,1.6,0.3   c0.4,0.1,0.7,0.3,0.8,0.5c0.2,0.2,0.2,0.5,0.2,0.7v20c0.9-0.9,1.8-1.7,2.8-2.4c0.9-0.7,1.8-1.2,2.8-1.6c0.9-0.4,1.9-0.7,2.8-0.9   c1-0.2,2-0.3,3.1-0.3c2.7,0,5,0.5,6.8,1.6c1.9,1.1,3.4,2.5,4.6,4.3c1.2,1.8,2,3.9,2.6,6.4C548.5,553.5,548.8,556.1,548.8,558.8"/>
	<path class="st0" d="M578.9,555.3c0.1-2.9-0.5-5.1-1.7-6.8c-1.2-1.6-3.1-2.5-5.7-2.5c-1.3,0-2.4,0.2-3.4,0.7s-1.8,1.1-2.4,2   c-0.6,0.8-1.1,1.8-1.5,2.9c-0.3,1.1-0.5,2.3-0.6,3.6L578.9,555.3L578.9,555.3z M588.8,558.2c0,1.3-0.3,2.2-0.8,2.8   c-0.6,0.6-1.3,0.9-2.3,0.9h-22.1c0,1.5,0.2,3,0.5,4.2c0.4,1.3,1,2.3,1.7,3.2c0.8,0.9,1.8,1.6,3.1,2c1.3,0.5,2.8,0.7,4.5,0.7   c1.8,0,3.4-0.1,4.7-0.4c1.4-0.3,2.5-0.5,3.5-0.9c1-0.3,1.8-0.6,2.5-0.9c0.7-0.3,1.2-0.4,1.6-0.4c0.2,0,0.4,0.1,0.6,0.1   c0.2,0.1,0.3,0.3,0.4,0.5c0.1,0.2,0.2,0.6,0.2,1s0.1,1,0.1,1.7c0,0.6,0,1.1,0,1.5s-0.1,0.8-0.1,1.1c-0.1,0.3-0.1,0.5-0.2,0.7   c-0.1,0.2-0.3,0.4-0.4,0.6c-0.2,0.2-0.7,0.4-1.4,0.8c-0.8,0.3-1.8,0.6-3,1c-1.2,0.3-2.6,0.6-4.2,0.8c-1.6,0.2-3.3,0.4-5,0.4   c-3.2,0-6.1-0.4-8.5-1.2s-4.5-2.1-6.1-3.7c-1.6-1.7-2.8-3.7-3.6-6.3c-0.8-2.5-1.2-5.5-1.2-8.9c0-3.2,0.4-6.1,1.3-8.7   c0.8-2.6,2.1-4.8,3.7-6.6c1.6-1.8,3.6-3.2,5.8-4.1c2.3-0.9,4.9-1.4,7.8-1.4c3,0,5.6,0.4,7.8,1.3c2.2,0.9,3.9,2.1,5.3,3.7   c1.4,1.6,2.4,3.5,3,5.6c0.7,2.2,1,4.5,1,7.1v1.8H588.8z"/>
	<path class="st0" d="M642.3,573.8c0,1.2-0.1,2.1-0.2,2.7c-0.1,0.6-0.4,1.1-0.6,1.3c-0.3,0.3-0.6,0.5-1.1,0.7s-1,0.4-1.6,0.5   c-0.6,0.2-1.3,0.3-2.1,0.4c-0.7,0.1-1.5,0.1-2.2,0.1c-2.1,0-3.8-0.3-5.3-0.8s-2.7-1.3-3.7-2.4c-1-1.1-1.7-2.4-2.2-4   s-0.7-3.6-0.7-5.8V548H607v17.1c0,2,0.3,3.5,0.9,4.5c0.6,1,1.7,1.5,3.3,1.5c0.5,0,1,0,1.5-0.1c0.4-0.1,0.8-0.2,1.2-0.3   c0.3-0.1,0.6-0.2,0.9-0.3c0.2-0.1,0.4-0.1,0.6-0.1c0.2,0,0.3,0.1,0.5,0.1c0.1,0.1,0.3,0.3,0.3,0.6c0.1,0.3,0.2,0.7,0.2,1.2   c0.1,0.5,0.1,1.1,0.1,1.9c0,0.8,0,1.4-0.1,1.8c0,0.4-0.1,0.8-0.2,1.1c-0.1,0.3-0.1,0.5-0.2,0.7c-0.1,0.2-0.3,0.4-0.5,0.6   c-0.2,0.2-0.6,0.4-1,0.6c-0.5,0.2-1,0.4-1.6,0.5s-1.3,0.3-2.1,0.3s-1.5,0.1-2.3,0.1c-2,0-3.8-0.3-5.3-0.8s-2.7-1.3-3.7-2.4   c-1-1.1-1.7-2.4-2.2-4s-0.7-3.6-0.7-5.8V548h-4.4c-0.5,0-0.9-0.3-1.2-1c-0.3-0.6-0.4-1.7-0.4-3.2c0-0.8,0-1.4,0.1-2   c0.1-0.5,0.2-1,0.3-1.3s0.3-0.5,0.5-0.7c0.2-0.1,0.4-0.2,0.7-0.2h4.3v-8.1c0-0.3,0.1-0.5,0.2-0.7c0.1-0.2,0.4-0.4,0.8-0.6   c0.4-0.1,0.9-0.3,1.6-0.3c0.7-0.1,1.5-0.1,2.5-0.1s1.8,0,2.5,0.1s1.2,0.2,1.6,0.3c0.4,0.1,0.7,0.3,0.8,0.6c0.2,0.2,0.2,0.5,0.2,0.7   v8.1h15.6v-10c0-0.3,0.1-0.5,0.2-0.7s0.4-0.4,0.8-0.5c0.4-0.1,0.9-0.2,1.6-0.3c0.7-0.1,1.5-0.1,2.5-0.1s1.8,0,2.5,0.1   s1.2,0.2,1.6,0.3c0.4,0.1,0.7,0.3,0.8,0.5c0.2,0.2,0.2,0.5,0.2,0.7v10h7.9c0.3,0,0.5,0.1,0.7,0.2c0.2,0.1,0.4,0.4,0.5,0.7   s0.3,0.7,0.3,1.3c0.1,0.5,0.1,1.2,0.1,2c0,1.5-0.1,2.6-0.4,3.2c-0.3,0.6-0.7,1-1.2,1h-7.9v17.1c0,2,0.3,3.5,0.9,4.5   c0.6,1,1.7,1.5,3.4,1.5c0.5,0,1,0,1.5-0.1c0.4-0.1,0.8-0.2,1.1-0.3s0.6-0.2,0.9-0.3c0.2-0.1,0.5-0.1,0.7-0.1s0.3,0.1,0.4,0.1   c0.1,0.1,0.2,0.3,0.3,0.6s0.2,0.7,0.2,1.2C642.3,572.4,642.3,573.1,642.3,573.8"/>
	<path class="st0" d="M670.6,555.3c0.1-2.9-0.5-5.1-1.7-6.8c-1.2-1.6-3.1-2.5-5.7-2.5c-1.3,0-2.4,0.2-3.4,0.7s-1.8,1.1-2.4,2   c-0.6,0.8-1.1,1.8-1.5,2.9c-0.3,1.1-0.5,2.3-0.6,3.6L670.6,555.3L670.6,555.3z M680.5,558.2c0,1.3-0.3,2.2-0.8,2.8   c-0.6,0.6-1.3,0.9-2.3,0.9h-22.1c0,1.5,0.2,3,0.5,4.2c0.4,1.3,1,2.3,1.8,3.2s1.8,1.6,3.1,2c1.3,0.5,2.8,0.7,4.5,0.7   c1.8,0,3.4-0.1,4.7-0.4c1.4-0.3,2.5-0.5,3.5-0.9c1-0.3,1.8-0.6,2.5-0.9c0.7-0.3,1.2-0.4,1.6-0.4c0.2,0,0.4,0.1,0.6,0.1   c0.2,0.1,0.3,0.3,0.4,0.5c0.1,0.2,0.2,0.6,0.2,1s0.1,1,0.1,1.7c0,0.6,0,1.1,0,1.5s-0.1,0.8-0.1,1.1c-0.1,0.3-0.1,0.5-0.2,0.7   c-0.1,0.2-0.3,0.4-0.4,0.6c-0.2,0.2-0.7,0.4-1.4,0.8c-0.8,0.3-1.8,0.6-3,1c-1.2,0.3-2.6,0.6-4.2,0.8c-1.6,0.2-3.3,0.4-5,0.4   c-3.2,0-6.1-0.4-8.5-1.2s-4.5-2.1-6.1-3.7s-2.8-3.7-3.6-6.3c-0.8-2.5-1.2-5.5-1.2-8.9c0-3.2,0.4-6.1,1.3-8.7   c0.8-2.6,2.1-4.8,3.7-6.6c1.6-1.8,3.6-3.2,5.8-4.1c2.3-0.9,4.9-1.4,7.8-1.4c3,0,5.6,0.4,7.8,1.3c2.2,0.9,3.9,2.1,5.3,3.7   c1.4,1.6,2.4,3.5,3,5.6c0.7,2.2,1,4.5,1,7.1v1.8H680.5z"/>
	<path class="st0" d="M710.6,544.5c0,1,0,1.8-0.1,2.4c-0.1,0.6-0.1,1.1-0.2,1.5c-0.1,0.4-0.2,0.6-0.4,0.7c-0.2,0.1-0.4,0.2-0.7,0.2   c-0.2,0-0.5,0-0.7-0.1c-0.3-0.1-0.6-0.2-0.9-0.3c-0.3-0.1-0.7-0.2-1.1-0.3c-0.4-0.1-0.8-0.1-1.3-0.1c-0.6,0-1.1,0.1-1.7,0.4   c-0.6,0.2-1.2,0.6-1.8,1.1s-1.3,1.1-1.9,1.9c-0.7,0.8-1.4,1.8-2.1,3v22.6c0,0.3-0.1,0.5-0.3,0.7s-0.4,0.4-0.8,0.5   c-0.4,0.1-0.9,0.2-1.6,0.3c-0.7,0.1-1.5,0.1-2.5,0.1s-1.8,0-2.5-0.1s-1.2-0.2-1.6-0.3c-0.4-0.1-0.7-0.3-0.8-0.5   c-0.2-0.2-0.2-0.4-0.2-0.7v-36.3c0-0.3,0.1-0.5,0.2-0.7c0.1-0.2,0.4-0.4,0.7-0.5c0.4-0.1,0.8-0.2,1.4-0.3c0.6-0.1,1.3-0.1,2.1-0.1   c0.9,0,1.6,0,2.2,0.1c0.6,0.1,1,0.2,1.3,0.3s0.5,0.3,0.7,0.5c0.1,0.2,0.2,0.4,0.2,0.7v4.5c1-1.4,1.8-2.5,2.7-3.4   c0.8-0.9,1.6-1.6,2.4-2.1c0.8-0.5,1.5-0.9,2.3-1.1c0.8-0.2,1.5-0.3,2.3-0.3c0.4,0,0.7,0,1.1,0.1c0.4,0,0.8,0.1,1.3,0.2   c0.4,0.1,0.8,0.2,1.1,0.3s0.6,0.3,0.7,0.4c0.1,0.1,0.3,0.3,0.3,0.4c0.1,0.2,0.1,0.4,0.2,0.7c0.1,0.3,0.1,0.7,0.1,1.3   C710.6,542.7,710.6,543.5,710.6,544.5"/>
	<path class="st0" d="M765.1,577.8c0,0.2-0.1,0.4-0.2,0.5c-0.1,0.1-0.3,0.3-0.5,0.4c-0.2,0.1-0.6,0.2-1,0.2c-0.4,0.1-1,0.1-1.6,0.1   c-0.7,0-1.2,0-1.7-0.1c-0.4-0.1-0.8-0.1-1-0.2c-0.2-0.1-0.4-0.2-0.5-0.4c-0.1-0.1-0.2-0.3-0.2-0.5v-21.4c0-2.1-0.2-3.8-0.5-5   c-0.3-1.3-0.8-2.4-1.4-3.3c-0.6-0.9-1.4-1.6-2.4-2.1s-2.1-0.7-3.4-0.7c-1.7,0-3.4,0.6-5,1.8c-1.7,1.2-3.4,2.9-5.3,5.3V578   c0,0.2-0.1,0.4-0.2,0.5c-0.1,0.1-0.3,0.3-0.5,0.4c-0.2,0.1-0.6,0.2-1,0.2c-0.4,0.1-1,0.1-1.7,0.1s-1.2,0-1.6-0.1   c-0.4-0.1-0.8-0.1-1-0.2c-0.3-0.1-0.4-0.2-0.5-0.4c-0.1-0.1-0.1-0.3-0.1-0.5v-54.4c0-0.2,0-0.4,0.1-0.6c0.1-0.2,0.3-0.3,0.5-0.4   c0.3-0.1,0.6-0.2,1-0.2c0.4-0.1,1-0.1,1.6-0.1c0.7,0,1.2,0,1.7,0.1c0.4,0.1,0.8,0.1,1,0.2c0.2,0.1,0.4,0.2,0.5,0.4s0.2,0.4,0.2,0.6   v21.9c1.9-2,3.9-3.5,5.8-4.5c2-1,3.9-1.5,5.9-1.5c2.4,0,4.5,0.4,6.2,1.2s3,1.9,4,3.3c1,1.4,1.8,3,2.2,4.9s0.7,4.1,0.7,6.7   L765.1,577.8L765.1,577.8z"/>
	<path class="st0" d="M796.6,561.1h-5.7c-1.8,0-3.4,0.2-4.8,0.5c-1.4,0.3-2.5,0.8-3.4,1.4c-0.9,0.6-1.6,1.3-2,2.2s-0.6,1.8-0.6,3   c0,1.9,0.6,3.4,1.8,4.5s2.9,1.7,5.1,1.7c1.8,0,3.4-0.4,4.9-1.3c1.5-0.9,3.1-2.3,4.7-4.1V561.1z M803.2,577.8c0,0.3-0.1,0.6-0.3,0.7   c-0.2,0.2-0.5,0.3-0.9,0.4c-0.4,0.1-0.9,0.1-1.7,0.1c-0.7,0-1.3,0-1.7-0.1s-0.7-0.2-0.9-0.4s-0.3-0.4-0.3-0.7v-3.7   c-1.6,1.7-3.4,3-5.4,4c-2,0.9-4,1.4-6.2,1.4c-1.9,0-3.7-0.3-5.2-0.8c-1.6-0.5-2.9-1.2-4-2.2c-1.1-0.9-2-2.1-2.6-3.5s-0.9-3-0.9-4.7   c0-2.1,0.4-3.9,1.3-5.4c0.8-1.5,2-2.8,3.6-3.8s3.5-1.8,5.8-2.3s4.8-0.8,7.7-0.8h5v-2.8c0-1.4-0.1-2.7-0.4-3.7   c-0.3-1.1-0.8-2-1.4-2.7c-0.7-0.7-1.5-1.3-2.6-1.6c-1.1-0.4-2.4-0.5-3.9-0.5c-1.7,0-3.1,0.2-4.5,0.6c-1.3,0.4-2.5,0.8-3.5,1.3   s-1.8,0.9-2.5,1.3c-0.7,0.4-1.2,0.6-1.5,0.6c-0.2,0-0.4-0.1-0.6-0.2c-0.2-0.1-0.3-0.3-0.4-0.5c-0.1-0.2-0.2-0.5-0.3-0.8   s-0.1-0.7-0.1-1.1c0-0.7,0-1.2,0.1-1.6c0.1-0.4,0.3-0.8,0.7-1.1c0.4-0.4,1-0.8,1.9-1.2c0.9-0.5,1.9-0.9,3.1-1.3   c1.2-0.4,2.4-0.7,3.8-1c1.4-0.3,2.8-0.4,4.2-0.4c2.6,0,4.9,0.3,6.7,0.9c1.8,0.6,3.3,1.5,4.5,2.6c1.1,1.2,2,2.6,2.5,4.3   s0.8,3.7,0.8,6v24.7H803.2z"/>
	<path class="st0" d="M840.6,559.7c0-1.9-0.1-3.7-0.4-5.4c-0.3-1.7-0.8-3.3-1.5-4.7s-1.6-2.4-2.8-3.3c-1.2-0.8-2.6-1.2-4.4-1.2   c-0.9,0-1.7,0.1-2.6,0.4c-0.8,0.3-1.7,0.7-2.6,1.2c-0.9,0.6-1.8,1.3-2.7,2.2c-1,0.9-2,2-3,3.4v14.6c1.9,2.3,3.6,4,5.3,5.2   s3.4,1.8,5.2,1.8c1.7,0,3.1-0.4,4.4-1.2c1.2-0.8,2.2-1.9,3-3.3c0.7-1.4,1.3-2.9,1.7-4.6C840.5,563.1,840.6,561.4,840.6,559.7    M847.6,558.9c0,3.2-0.3,6.1-1,8.6c-0.7,2.6-1.7,4.7-3,6.5s-3,3.1-5,4.1s-4.2,1.4-6.8,1.4c-1.1,0-2.1-0.1-3-0.3s-1.8-0.6-2.7-1   c-0.9-0.5-1.8-1-2.6-1.8c-0.9-0.7-1.8-1.5-2.8-2.5v28.3c0,0.2-0.1,0.4-0.2,0.6c-0.1,0.2-0.3,0.3-0.5,0.4c-0.2,0.1-0.6,0.2-1,0.2   c-0.4,0.1-1,0.1-1.7,0.1s-1.2,0-1.6-0.1c-0.4-0.1-0.8-0.1-1-0.2c-0.3-0.1-0.4-0.2-0.5-0.4s-0.1-0.4-0.1-0.6V541   c0-0.2,0-0.4,0.1-0.6c0.1-0.1,0.2-0.3,0.5-0.4c0.2-0.1,0.6-0.2,0.9-0.2c0.4,0,0.8-0.1,1.4-0.1c0.6,0,1,0,1.4,0.1   c0.4,0,0.7,0.1,0.9,0.2c0.2,0.1,0.4,0.2,0.5,0.4s0.1,0.3,0.1,0.6v4.9c1.1-1.1,2.2-2.1,3.2-3c1-0.8,2.1-1.5,3.1-2.1s2.1-1,3.2-1.3   c1.1-0.3,2.3-0.4,3.5-0.4c2.7,0,4.9,0.5,6.8,1.6c1.9,1,3.4,2.4,4.6,4.2c1.2,1.8,2,3.9,2.6,6.2C847.3,553.7,847.6,556.2,847.6,558.9   "/>
	<path class="st0" d="M882.8,559.7c0-1.9-0.1-3.7-0.4-5.4c-0.3-1.7-0.8-3.3-1.5-4.7s-1.6-2.4-2.8-3.3c-1.2-0.8-2.6-1.2-4.4-1.2   c-0.9,0-1.7,0.1-2.6,0.4c-0.8,0.3-1.7,0.7-2.6,1.2c-0.9,0.6-1.8,1.3-2.7,2.2c-1,0.9-2,2-3,3.4v14.6c1.9,2.3,3.6,4,5.3,5.2   s3.4,1.8,5.2,1.8c1.7,0,3.1-0.4,4.4-1.2c1.2-0.8,2.2-1.9,3-3.3c0.7-1.4,1.3-2.9,1.7-4.6C882.6,563.1,882.8,561.4,882.8,559.7    M889.7,558.9c0,3.2-0.3,6.1-1,8.6c-0.7,2.6-1.7,4.7-3,6.5s-3,3.1-5,4.1s-4.2,1.4-6.8,1.4c-1.1,0-2.1-0.1-3-0.3s-1.8-0.6-2.7-1   c-0.9-0.5-1.8-1-2.6-1.8c-0.9-0.7-1.8-1.5-2.8-2.5v28.3c0,0.2-0.1,0.4-0.2,0.6c-0.1,0.2-0.3,0.3-0.5,0.4c-0.2,0.1-0.6,0.2-1,0.2   c-0.4,0.1-1,0.1-1.7,0.1s-1.2,0-1.6-0.1c-0.4-0.1-0.8-0.1-1-0.2c-0.3-0.1-0.4-0.2-0.5-0.4s-0.1-0.4-0.1-0.6V541   c0-0.2,0-0.4,0.1-0.6c0.1-0.1,0.2-0.3,0.5-0.4c0.2-0.1,0.6-0.2,0.9-0.2c0.4,0,0.8-0.1,1.4-0.1c0.6,0,1,0,1.4,0.1   c0.4,0,0.7,0.1,0.9,0.2c0.2,0.1,0.4,0.2,0.5,0.4s0.1,0.3,0.1,0.6v4.9c1.1-1.1,2.2-2.1,3.2-3c1-0.8,2.1-1.5,3.1-2.1s2.1-1,3.2-1.3   c1.1-0.3,2.3-0.4,3.5-0.4c2.7,0,4.9,0.5,6.8,1.6c1.9,1,3.4,2.4,4.6,4.2c1.2,1.8,2,3.9,2.6,6.2C889.5,553.7,889.7,556.2,889.7,558.9   "/>
	<path class="st0" d="M922.7,555.9c0.1-3.5-0.7-6.3-2.4-8.3c-1.6-2-4.1-3-7.4-3c-1.7,0-3.1,0.3-4.4,0.9c-1.3,0.6-2.3,1.4-3.2,2.5   c-0.8,1-1.5,2.2-2,3.6c-0.5,1.4-0.7,2.8-0.8,4.3H922.7z M929.4,557.9c0,1.1-0.3,1.8-0.8,2.3c-0.5,0.4-1.1,0.7-1.8,0.7h-24.1   c0,2,0.2,3.9,0.6,5.5c0.4,1.6,1.1,3,2,4.2c1,1.2,2.2,2.1,3.7,2.7c1.5,0.6,3.4,0.9,5.6,0.9c1.7,0,3.3-0.1,4.7-0.4   c1.4-0.3,2.5-0.6,3.5-1c1-0.3,1.8-0.7,2.5-1c0.6-0.3,1.1-0.4,1.5-0.4c0.2,0,0.4,0,0.5,0.1s0.3,0.2,0.4,0.4s0.1,0.5,0.2,0.8   c0,0.3,0.1,0.7,0.1,1.2c0,0.4,0,0.7,0,0.9c0,0.3-0.1,0.5-0.1,0.7s-0.1,0.4-0.2,0.5c-0.1,0.2-0.2,0.3-0.4,0.5   c-0.1,0.1-0.6,0.4-1.3,0.7s-1.7,0.7-2.8,1c-1.2,0.3-2.5,0.6-4,0.9c-1.5,0.3-3.2,0.4-4.9,0.4c-3,0-5.6-0.4-7.9-1.3   c-2.3-0.8-4.2-2.1-5.7-3.7c-1.5-1.7-2.7-3.7-3.5-6.2s-1.2-5.4-1.2-8.7c0-3.1,0.4-6,1.2-8.5s2-4.6,3.5-6.4c1.5-1.7,3.4-3.1,5.6-4   c2.2-0.9,4.6-1.4,7.3-1.4c2.9,0,5.3,0.5,7.3,1.4s3.7,2.2,5,3.7c1.3,1.6,2.3,3.4,2.9,5.5c0.6,2.1,0.9,4.3,0.9,6.7v1.3H929.4z"/>
	<path class="st0" d="M969.5,577.8c0,0.2-0.1,0.4-0.2,0.5c-0.1,0.1-0.3,0.3-0.5,0.4c-0.2,0.1-0.6,0.2-1,0.2c-0.4,0.1-1,0.1-1.6,0.1   c-0.7,0-1.2,0-1.7-0.1c-0.4-0.1-0.8-0.1-1-0.2c-0.2-0.1-0.4-0.2-0.5-0.4c-0.1-0.1-0.2-0.3-0.2-0.5v-21.4c0-2.1-0.2-3.8-0.5-5   c-0.3-1.3-0.8-2.4-1.4-3.3c-0.6-0.9-1.4-1.6-2.4-2.1s-2.1-0.7-3.4-0.7c-1.7,0-3.4,0.6-5,1.8c-1.7,1.2-3.4,2.9-5.3,5.3V578   c0,0.2-0.1,0.4-0.2,0.5c-0.1,0.1-0.3,0.3-0.5,0.4c-0.2,0.1-0.6,0.2-1,0.2c-0.4,0.1-1,0.1-1.7,0.1s-1.2,0-1.6-0.1   c-0.4-0.1-0.8-0.1-1-0.2c-0.3-0.1-0.4-0.2-0.5-0.4c-0.1-0.1-0.1-0.3-0.1-0.5v-36.6c0-0.2,0-0.4,0.1-0.6c0.1-0.1,0.2-0.3,0.5-0.4   c0.2-0.1,0.6-0.2,0.9-0.2c0.4,0,0.9-0.1,1.5-0.1s1.1,0,1.5,0.1c0.4,0,0.7,0.1,0.9,0.2c0.2,0.1,0.4,0.3,0.5,0.4   c0.1,0.1,0.1,0.3,0.1,0.6v4.8c2.1-2.3,4.1-4,6.2-5.1c2-1.1,4.1-1.6,6.2-1.6c2.4,0,4.5,0.4,6.2,1.2s3,1.9,4,3.3c1,1.4,1.8,3,2.2,4.9   s0.7,4.1,0.7,6.7v22.2H969.5z"/>
	<path class="st0" d="M1003.1,567.8c0,1.9-0.3,3.5-1,5s-1.7,2.7-2.9,3.7c-1.3,1-2.8,1.8-4.6,2.3s-3.7,0.8-5.8,0.8   c-1.3,0-2.5-0.1-3.7-0.3s-2.2-0.5-3.2-0.8c-0.9-0.3-1.7-0.6-2.4-1c-0.7-0.3-1.1-0.6-1.4-0.9c-0.3-0.3-0.5-0.7-0.7-1.1   s-0.2-1.2-0.2-2c0-0.5,0-1,0.1-1.3c0.1-0.4,0.1-0.6,0.2-0.9c0.1-0.2,0.2-0.4,0.3-0.5s0.3-0.1,0.5-0.1c0.3,0,0.7,0.2,1.3,0.5   s1.3,0.8,2.2,1.2s1.9,0.8,3,1.2c1.2,0.4,2.5,0.6,4,0.6c1.1,0,2.2-0.1,3.1-0.4c0.9-0.2,1.7-0.6,2.4-1.1s1.2-1.1,1.6-1.8   c0.4-0.7,0.6-1.6,0.6-2.6s-0.3-1.9-0.8-2.6c-0.5-0.7-1.2-1.3-2.1-1.9c-0.9-0.5-1.9-1-2.9-1.4c-1.1-0.4-2.2-0.9-3.4-1.3   c-1.2-0.5-2.3-1-3.4-1.6c-1.1-0.6-2.1-1.3-3-2.1s-1.6-1.8-2.1-3s-0.8-2.6-0.8-4.2c0-1.4,0.3-2.8,0.8-4.1c0.6-1.3,1.4-2.5,2.5-3.5   s2.5-1.8,4.2-2.4c1.7-0.6,3.6-0.9,5.8-0.9c1,0,2,0.1,2.9,0.2c1,0.2,1.9,0.4,2.6,0.6c0.8,0.2,1.5,0.5,2,0.8c0.6,0.3,1,0.5,1.3,0.7   s0.5,0.4,0.6,0.6c0.1,0.2,0.2,0.3,0.2,0.5s0.1,0.4,0.1,0.7s0.1,0.7,0.1,1.1c0,0.5,0,0.9-0.1,1.2c0,0.3-0.1,0.6-0.2,0.8   c-0.1,0.2-0.2,0.4-0.4,0.5c-0.1,0.1-0.3,0.1-0.4,0.1c-0.2,0-0.6-0.1-1.1-0.4c-0.5-0.3-1.1-0.6-1.8-1c-0.7-0.3-1.6-0.7-2.6-1   s-2.1-0.4-3.4-0.4c-1.1,0-2.1,0.1-3,0.4c-0.9,0.3-1.6,0.6-2.1,1.1c-0.6,0.5-1,1-1.3,1.7s-0.4,1.4-0.4,2.1c0,1.1,0.3,1.9,0.8,2.7   c0.5,0.7,1.3,1.3,2.1,1.9c0.9,0.5,1.9,1,3,1.5c1.1,0.4,2.2,0.9,3.4,1.3c1.1,0.5,2.3,1,3.4,1.6c1.1,0.6,2.1,1.3,3,2.1   s1.6,1.8,2.1,2.9C1002.8,564.9,1003.1,566.2,1003.1,567.8"/>
	<path class="st0" d="M1019.7,574.4c0,1.9-0.3,3.2-1,3.8c-0.6,0.6-1.8,1-3.5,1c-1.6,0-2.8-0.3-3.4-0.9c-0.6-0.6-0.9-1.9-0.9-3.7   c0-1.9,0.3-3.2,1-3.8c0.6-0.6,1.8-1,3.5-1c1.6,0,2.8,0.3,3.4,0.9C1019.4,571.2,1019.7,572.5,1019.7,574.4"/>
</g>
</svg>