<svg width="34" height="33" viewBox="0 0 34 33" fill="none" xmlns="http://www.w3.org/2000/svg">
<path fill-rule="evenodd" clip-rule="evenodd" d="M33.6111 32.625H26.785V21.2513C26.785 18.133 25.5738 16.3903 23.0508 16.3903C20.306 16.3903 18.872 18.2038 18.872 21.2513V32.625H12.2935V10.9583H18.872V13.8768C18.872 13.8768 20.85 10.2964 25.55 10.2964C30.2478 10.2964 33.6111 13.1028 33.6111 18.907V32.625ZM4.44544 8.12126C2.20467 8.12126 0.388916 6.33104 0.388916 4.12313C0.388916 1.91522 2.20467 0.125 4.44544 0.125C6.68621 0.125 8.50089 1.91522 8.50089 4.12313C8.50089 6.33104 6.68621 8.12126 4.44544 8.12126ZM1.0486 32.625H7.90826V10.9583H1.0486V32.625Z" fill="#000c1a"/>
</svg>
