<svg version="1.1" xmlns="http://www.w3.org/2000/svg" xmlns:xlink="http://www.w3.org/1999/xlink" width="1560" height="804"><defs/><g><path fill="none" stroke="#ffffe3" paint-order="fill stroke markers" d=" M 20 423.6084637626055 L 21 412.8662406206098 L 22 401.90263435236096 L 23 390.9410117611 L 24 380.20469923566634 L 25 369.9124328149805 L 26 360.2739017739258 L 27 351.48547652328705 L 28 343.72620786128954 L 29 337.15417908590223 L 30 331.90328528806975 L 31 328.0805054428739 L 32 325.76372287562066 L 33 325.0001385075389 L 34 325.80530920879795 L 35 328.16283085093835 L 36 332.0246725160402 L 37 337.3121550536258 L 38 343.91755404868843 L 39 351.70629454281016 L 40 360.51969279426595 L 41 370.17818921792013 L 42 380.4850066386827 L 43 391.23015932717436 L 44 402.19473113959697 L 45 413.15533560121565 L 46 423.88866706603386 L 47 434.1760502297073 L 48 443.8078953062873 L 49 452.58796810134675 L 50 460.33738798523945 L 51 466.8982723138713 L 52 472.1369530474511 L 53 475.9467000335061 L 54 478.2498954714139 L 55 478.99961525704146 L 56 478.1805849900004 L 57 475.80949116632405 L 58 471.93464121648924 L 59 466.6349793149909 L 60 460.0184780128521 L 61 452.2199384611119 L 62 443.39824404239084 L 63 433.7331233636153 L 64 423.42148855899853 L 65 412.673423504789 L 66 401.7079036798071 L 67 390.74833487310184 L 68 380.01800163077576 L 69 369.73551817295 L 70 360.1103744615185 L 71 351.3386681607857 L 72 343.5991094458002 L 73 337.04938005433746 L 74 331.82292076130943 L 75 328.026212725925 L 76 325.7366081000176 L 77 325.0007540955958 L 78 325.8336426188445 L 79 328.2183048328369 L 80 332.1061568717796 L 81 337.41798966338683 L 82 344.0455826932603 L 83 351.8539088332778 L 84 360.6838853139665 L 85 370.35561479398405 L 86 380.67205049484306 L 87 391.4230107293355 L 88 402.38946103374633 L 89 413.34797666192327 L 90 424.0752945246745 L 91 434.35286183565137 L 92 443.9712887919754 L 93 452.734614573012 L 94 460.4642997440552 L 95 467.002863725771 L 96 472.21709322148956 L 97 476.0007562355221 L 98 478.27676638850505 L 99 478.99875343513975 L 100 478.15200798741637 L 101 475.7537811960227 L 102 471.8529332843867 L 103 466.5289380959347 L 104 459.89026393540297 L 105 452.072163692098 L 106 443.2339192679813 L 107 433.5555964511681 L 108 423.23437634935544 L 109 412.48053812464394 L 110 401.5131748754223 L 111 390.5557299477047 L 112 379.83144461678995 L 113 369.5588098858023 L 114 359.94711506380503 L 115 351.19218381443466 L 116 343.47238454658134 L 117 336.9449964293375 L 118 331.74300506813137 L 119 327.97239312527415 L 120 325.70998108440324 L 121 325.0018621499643 L 122 325.8624631682733 L 123 328.2742507024644 L 124 332.18808824959984 L 125 337.5242373221856 L 126 344.1739819985809 L 127 352.0018438445558 L 128 360.8483420803407 L 129 370.5332427589606 L 130 380.859230758789 L 131 391.61592977905394 L 132 402.58418843700855 L 133 413.5405451440473 L 134 424.26178079571315 L 135 434.529466521458 L 136 444.1344138406736 L 137 452.88093655983045 L 138 460.5908375810525 L 139 467.1070393969688 L 140 472.29678430602735 L 141 476.0543391487539 L 142 478.30314946006774 L 143 478.99739915007615 L 144 478.1229439372249 L 145 475.6975995165227 L 146 471.7707785918516 L 147 466.4224841672763 L 148 459.76167960751286 L 149 451.9240686750938 L 150 443.06933077259777 L 151 433.37786771767696 L 152 423.04712833039537 L 153 412.2875857138169 L 154 401.3184491846389 L 155 390.36319821675784 L 156 379.64502938687735 L 157 369.3823090837157 L 158 359.7841246249478 L 159 351.0460244211078 L 160 343.3460339741312 L 161 336.84102887851185 L 162 331.66353871965475 L 163 327.91904698513684 L 164 325.68384199907683 L 165 325.00346266355757 L 166 325.891770672756 L 167 328.33066810200626 L 168 332.27046612549 L 169 337.6308973504908 L 170 344.3027511434429 L 171 352.15009863049215 L 172 361.0130620415679 L 173 370.71107197679 L 174 381.04654623336614 L 175 391.80891524247147 L 176 402.77891210395967 L 177 413.7330398159718 L 178 424.4481246864343 L 179 434.7058631576119 L 180 444.2972694090787 L 181 453.02693312596625 L 182 460.7170006869294 L 183 467.2107986611852 L 184 472.3760257913816 L 185 476.10744843049974 L 186 478.3290445173632 L 187 478.99555241051235 L 188 478.09339302531174 L 189 475.6409464871467 L 190 471.6881776643231 L 191 466.3156182098665 L 192 459.6327258515722 L 193 451.77565435727456 L 194 442.90447960890333 L 195 433.19993829984685 L 196 422.8597456997059 L 197 412.0945675063795 L 198 401.12372785287 L 199 390.1707409116419 L 200 379.4587571332987 L 201 369.2060168955412 L 202 359.6214041873901 L 203 350.9001909156015 L 204 343.2200585365538 L 205 336.73747806680876 L 206 331.58452222412467 L 207 327.86617464670053 L 208 325.65819101121684 L 209 325.00555562613914 L 210 325.92156494484965 L 211 328.38755667063197 L 212 332.35328997258347 L 213 337.73796906613376 L 214 344.43188930427397 L 215 352.29867224288955 L 216 361.1780441441434 L 217 370.889101310124 L 218 381.2339957205556 L 219 392.0019658853056 L 220 402.9736307892 L 221 413.9254594465533 L 222 424.6343250050333 L 223 434.88205061592737 L 224 444.4598544556102 L 225 453.1726033376653 L 226 460.8427882547811 L 227 467.31414085480435 L 228 472.4548171707454 L 229 476.1600837410872 L 230 478.3544513947735 L 231 478.9932132282596 L 232 478.06335544067656 L 233 475.58382247023223 L 234 471.60513103009424 L 235 466.20834090719086 L 236 459.5034034923342 L 237 451.62692168785867 L 238 442.73936683124185 L 239 433.02180933566564 L 240 422.6722296557356 L 241 411.9014847368235 L 242 400.92901212550026 L 243 389.9783592632612 L 244 379.2726290474018 L 245 369.0299344487964 L 246 359.45895479184725 L 247 350.75468423062705 L 248 343.0944590395536 L 249 336.6343446565111 L 250 331.5059560869092 L 251 327.81377644812255 L 252 325.6330282848801 L 253 325.008141024323 L 254 325.9518457939982 L 255 328.44491604449786 L 256 332.43655926116145 L 257 337.845451784313 L 258 344.56139565514087 L 259 352.447563731511 L 260 361.34328733288686 L 261 371.0673296203356 L 262 381.42157802148154 L 263 392.1950804728566 L 264 403.168343247362 L 265 414.11780280512716 L 266 424.82038056062265 L 267 435.0580277695578 L 268 444.6221679404183 L 269 453.3179462632599 L 270 460.96819948010426 L 271 467.41706531687726 L 272 472.5331579401904 L 273 476.21224474387475 L 274 478.37936992980326 L 275 478.9903816182786 L 276 478.03283137543167 L 277 475.52622783112895 L 278 471.521639220309 L 279 466.10065294536594 L 280 459.3737133569099 L 281 451.4778716180989 L 282 442.5739934956296 L 283 432.84348196439845 L 284 422.4845813977861 L 285 411.7083386400545 L 286 400.73430324787876 L 287 389.7860545020374 L 288 379.08664631961 L 289 368.8540628696566 L 290 359.29677747730204 L 291 350.6095052968059 L 292 342.96923628643134 L 293 336.53162930723227 L 294 331.4278408104962 L 295 327.7618527245272 L 296 325.6083539810005 L 297 325.01121884157357 L 298 325.9826130265335 L 299 328.5027458567486 L 300 332.5202734586561 L 301 337.95334481759795 L 302 344.691269367757 L 303 352.59677214408714 L 304 361.5087905509472 L 305 371.2457557675249 L 306 381.6092919364179 L 307 392.38825777001597 L 308 403.36304823311684 L 309 414.3100686615188 L 310 425.00629016324183 L 311 435.23379349300035 L 312 444.78420882539 L 313 453.46296097317634 L 314 461.0932335608028 L 315 467.5195713891271 L 316 472.61104759867044 L 317 476.263931105255 L 318 478.40379996308013 L 319 478.9870575986796 L 320 478.0018210248007 L 321 475.46816293819666 L 322 471.4377027689583 L 323 465.99255501313445 L 324 459.24365627476203 L 325 451.32850510128026 L 326 442.40836065974975 L 327 432.6649573265786 L 328 422.2968021260049 L 329 411.5151304513822 L 330 400.53960246531017 L 331 389.59382785789927 L 332 378.90081013941983 L 333 368.6784032829488 L 334 359.1348732809963 L 335 350.46465504266297 L 336 342.84439107807765 L 337 336.42933267591144 L 338 331.3501768944898 L 339 327.71040380800497 L 340 325.5841682573883 L 341 325.014789058206 L 342 326.01386644567674 L 343 328.56104573752066 L 344 332.60443202965433 L 345 338.061647475934 L 346 344.8215096114844 L 347 352.7462965263214 L 348 361.67455273981085 L 349 371.42437861052645 L 350 381.7971362647975 L 351 392.5814965412746 L 352 403.5577445011846 L 353 414.50225578604653 L 354 425.1920526238634 L 355 435.40934666210546 L 356 444.94597607415574 L 357 453.6076465399399 L 358 461.2178896971929 L 359 467.6216584159528 L 360 472.6884856480241 L 361 476.3151424946559 L 362 478.4277413383564 L 363 478.9832411907222 L 364 477.9703245871174 L 365 475.40962816280233 L 366 471.3533222128769 L 367 465.8840478018621 L 368 459.1132330777005 L 369 451.17882309270993 L 370 442.24246938294493 L 371 432.4862365640012 L 372 422.10889304137675 L 373 411.3218614065141 L 374 400.34491102304906 L 375 389.4016805602763 L 376 378.71512169538863 L 377 368.50295681214413 L 378 358.97324323842554 L 379 350.320134394621 L 380 342.71992421296864 L 381 336.32745541681084 L 382 331.27296483560724 L 383 327.659430027609 L 384 325.56047126872875 L 385 325.0188516513863 L 386 326.0456058515395 L 387 328.6198153139437 L 388 332.6890344359003 L 389 338.1703590666469 L 390 344.9521155533421 L 391 352.89613592189625 L 392 361.8405728393078 L 393 371.6031970069175 L 394 381.985109805219 L 395 392.7747955507286 L 396 403.7524308063406 L 397 414.6943629495341 L 398 425.37766675440093 L 399 435.58468615408253 L 400 445.10746865209643 L 401 453.7520020381807 L 402 461.342167092007 L 403 467.7233257444335 L 404 472.76547159297866 L 405 476.36587858454334 L 406 478.4511939025094 L 407 478.97893241881496 L 408 477.93834226382444 L 409 475.350623879319 L 410 471.26849809173996 L 411 465.7751320055313 L 412 458.98244459987677 L 413 451.0288265497136 L 414 442.0763207262104 L 415 432.307320819716 L 416 421.9208553457184 L 417 411.1285327415464 L 418 400.1502301662885 L 419 389.2096138380906 L 420 378.5295821751293 L 421 368.3277245793502 L 422 358.8118883833316 L 423 350.1759442769956 L 424 342.5958364871607 L 425 336.2259981815094 L 426 331.196205127676 L 427 327.6089317093537 L 428 325.5372631665813 L 429 325.023406595131 L 430 326.07783104112514 L 431 328.6790542101434 L 432 332.77408013630014 L 433 338.2794788944466 L 434 345.08308635800984 L 435 353.04628937248003 L 436 362.0068497876184 L 437 371.7822098130232 L 438 382.17321135545455 L 439 392.96815356209044 L 440 403.947105903424 L 441 414.88638892331613 L 442 425.56313136771735 L 443 435.75981084750777 L 444 445.26868552634846 L 445 453.8960265446403 L 446 461.4660649504009 L 447 467.82457272433237 L 448 472.8420049411529 L 449 476.41613905042294 L 450 478.47415750554296 L 451 478.97413131051576 L 452 477.9058742594721 L 453 475.2911504651221 L 454 471.18323094805936 L 455 465.66580832073794 L 456 458.8512916777785 L 457 450.8785164316281 L 458 441.9099157521888 L 459 432.12821123801945 L 460 421.73269024166797 L 461 410.93514569295644 L 462 399.95556114015454 L 463 389.0176289197488 L 464 378.3441927653019 L 465 368.1527077053059 L 466 358.6508097476965 L 467 350.0320856119878 L 468 342.4721286942849 L 469 336.1249616189002 L 470 331.1198982616304 L 471 327.5589091762127 L 472 325.5145440993789 L 473 325.02845386030805 L 474 326.1105418083299 L 475 328.7387620472441 L 476 332.8595685869246 L 477 338.3890062614323 L 478 345.2144211878343 L 479 353.19675591773114 L 480 362.17338252128053 L 481 371.96141588392595 L 482 382.36143971245815 L 483 393.16156933869456 L 484 404.14176854734575 L 485 415.07833247924714 L 486 425.7484452776301 L 487 435.934719622331 L 488 445.4296256658123 L 489 454.03971913817725 L 490 461.58958247995747 L 491 467.9253987081012 L 492 472.9180852030605 L 493 476.4659235708426 L 494 478.49663200058797 L 495 478.9688378965311 L 496 477.87292078171686 L 497 475.23120830058684 L 498 471.09752132718137 L 499 465.55607744668646 L 500 458.71977515022377 L 501 450.7278936997974 L 502 441.7432555251613 L 503 431.94890896444747 L 504 421.5443989326768 L 505 410.7417014975969 L 506 399.76090518969704 L 507 388.825727033134 L 508 378.15895465160827 L 509 367.9779073093716 L 510 358.490008361735 L 511 349.8885593196773 L 512 342.3488016255438 L 513 336.02434637518536 L 514 331.04404472550823 L 515 327.50936274811676 L 516 325.49231421242644 L 517 325.0339934146365 L 518 326.143737943945 L 519 328.79893844337005 L 520 332.94549924101295 L 521 338.498940467097 L 522 345.34611920283237 L 523 353.34753459530623 L 524 362.3401699751963 L 525 372.14081407347385 L 526 382.54979367237064 L 527 393.35504164350675 L 528 404.33641749309675 L 529 415.2701923897065 L 530 425.9336072989217 L 531 436.10941135988367 L 532 445.5902880411599 L 533 454.1830788997715 L 534 461.71271889069243 L 535 468.0258030508847 L 536 472.9937118921121 L 537 476.5152318273936 L 538 478.51861724390386 L 539 478.96305221071634 L 540 477.8394820413206 L 541 475.17079776908747 L 542 471.0113697772805 L 543 465.44594008518663 L 544 458.58789585835785 L 545 450.576959317562 L 546 441.5763411110402 L 547 431.76941514577027 L 548 421.3559826230062 L 549 410.54820139268236 L 550 399.56626355988425 L 551 388.6339094056002 L 552 377.9738690187793 L 553 367.8033245095219 L 554 358.32948525389065 L 555 349.7453663180203 L 556 342.2258560697025 L 557 335.92415309387366 L 558 330.9686450044488 L 559 327.460292741951 L 560 325.4705736479001 L 561 325.0400252226867 L 562 326.1774192356566 L 563 328.8595830136501 L 564 333.03187154897523 L 565 338.60928080833037 L 566 345.4781795607007 L 567 353.49862444086705 L 568 362.5072110826369 L 569 372.32040323428373 L 570 382.7382720305332 L 571 393.54856923912894 L 572 404.5310514957535 L 573 415.4619674276123 L 574 426.1186162473476 L 575 436.2838849428833 L 576 445.75067162483725 L 577 454.32610491253445 L 578 461.8354733950576 L 579 468.1257851105229 L 580 473.0688845246207 L 581 476.5640635047143 L 582 478.54011309487873 L 583 478.956774290075 L 584 477.8055582521479 L 585 475.10991925699375 L 586 470.9247768493597 L 587 465.335396940646 L 588 458.4556546456435 L 589 450.4257142502591 L 590 441.4091735773657 L 591 431.58973092997974 L 592 421.1674425177169 L 593 410.3546466157892 L 594 399.37163749558914 L 595 388.4421772639588 L 596 377.7889370505745 L 597 367.62896042234195 L 598 358.16924145082385 L 599 349.60250752284117 L 600 342.10329281308896 L 601 335.82438241577296 L 602 330.8936995806874 L 603 327.41169947155436 L 604 325.44932254484684 L 605 325.0465492458811 L 606 326.21158546804827 L 607 328.9206953702172 L 608 333.1186849583987 L 609 338.72002657942664 L 610 345.61060141681554 L 611 353.6500244880831 L 612 362.67450477525466 L 613 372.50018221775093 L 614 382.9268735814873 L 615 393.7421508878131 L 616 404.72566931049187 L 617 415.65365636642133 L 618 426.30347093963957 L 619 436.458139255446 L 620 445.9107753910735 L 621 454.4687962617089 L 622 461.95784520794984 L 623 468.2253442475589 L 624 473.14360261980175 L 625 476.6124182904901 L 626 478.56111941603126 L 627 478.95000417475904 L 628 477.7711496311666 L 629 475.04857315366746 L 630 470.83774309724294 L 631 465.2244487200697 L 632 458.3230523578603 L 633 450.2741594652093 L 634 441.24175399329704 L 635 431.4098574662894 L 636 420.97877982265817 L 637 410.1610384048391 L 638 399.1770282415894 L 639 388.2505318344777 L 640 377.6041599297665 L 641 367.45481616301834 L 642 358.00927797741235 L 643 349.45998384782445 L 644 341.98111263958305 L 645 335.7250349789906 L 646 330.8192089335551 L 647 327.36358324771567 L 648 325.42856103918297 L 649 325.05356544249366 L 650 326.2462364226023 L 651 328.98227512221405 L 652 333.2059389140472 L 653 338.8311770720854 L 654 345.7433839242441 L 655 353.80173376863974 L 656 362.8420499830825 L 657 372.6801498740598 L 658 383.1155971189906 L 659 393.93578535146145 L 660 404.9202696925879 L 661 415.8452579801452 L 662 426.48817019351617 L 663 436.63217318308654 L 664 446.0705983158902 L 665 454.6111520346813 L 666 462.0798335467108 L 667 468.3244798252388 L 668 473.21786569977934 L 669 476.6602958754567 L 670 478.5816360730103 L 671 478.94274190806823 L 672 477.73625639844454 L 673 474.98675985146224 L 674 470.75026907757496 L 675 465.11309613305133 L 676 458.1900898430975 L 677 450.1222959317178 L 678 441.07408342960264 L 679 431.22979590511915 L 680 420.78999574446766 L 681 409.9673779980988 L 682 398.9824370425511 L 683 388.0589743428703 L 684 377.419538838142 L 685 367.2808928453285 L 686 357.84959585673744 L 687 349.31779620451454 L 688 341.8593163306168 L 689 335.62611141892484 L 690 330.74517353947437 L 691 327.31594437817387 L 692 325.4082892636933 L 693 325.0610737676508 L 694 326.2813718777002 L 695 329.04432187579295 L 696 333.29363285786906 L 697 338.94273157541744 L 698 345.8765262337439 L 699 353.95375131224733 L 700 363.0098456345486 L 701 372.860305052184 L 702 383.30444143601744 L 703 394.12947139164254 L 704 405.1148513974292 L 705 416.0367710433497 L 706 426.67271282769303 L 707 436.805985612733 L 708 446.2301393771014 L 709 454.75317132098183 L 710 462.20143763113754 L 711 468.42319120951777 L 712 473.2916732895861 L 713 476.7076959534026 L 714 478.6016629345973 L 715 478.9349875364502 L 716 477.70087877714957 L 717 474.92447974571866 L 718 470.6623553498164 L 719 465.0013398917731 L 720 458.0567679517456 L 721 449.97012462106085 L 722 440.9061629586598 L 723 431.049547398095 L 724 420.60109149055495 L 725 409.773666634169 L 726 398.7878651430288 L 727 387.8675060142842 L 728 377.2350749564851 L 729 367.1071915816408 L 730 357.69019611008355 L 731 349.17594550230353 L 732 341.7379046651671 L 733 335.52761236826495 L 734 330.67159387195466 L 735 327.26878316761366 L 736 325.38850734803077 L 737 325.06907417333116 L 738 326.31699160862564 L 739 329.1068352341192 L 740 333.3817662289967 L 741 339.05468937595174 L 742 346.0100274937744 L 743 354.1060761466411 L 744 363.17789065647645 L 745 373.04064659990183 L 746 383.4934053247697 L 747 394.32320776959074 L 748 405.3094131805262 L 749 416.2281943311714 L 750 426.8570976618835 L 751 436.9795754327272 L 752 446.38939755432756 L 753 454.89485321229284 L 754 462.32265668348185 L 755 468.5214777690657 L 756 473.3650249171694 L 757 476.7546182211692 L 758 478.62119987270563 L 759 478.92674110949963 L 760 477.6650169935475 L 761 474.861733234764 L 762 470.5740024762386 L 763 464.8891807109964 L 764 457.9230875364969 L 765 449.81764650648574 L 766 440.73799365444063 L 767 430.86911309803855 L 768 420.4120682691027 L 769 409.5799055519728 L 770 398.5933137874495 L 771 387.676128073301 L 772 377.0507694645781 L 773 366.9337134828996 L 774 357.5310797569292 L 775 349.03443264843156 L 776 341.6168784197486 L 777 335.42953845698315 L 778 330.5984704015923 L 779 327.2220999176657 L 780 325.36921541871493 L 781 325.07756660836634 L 782 326.35309538756394 L 783 329.1698147973751 L 784 333.4703384637538 L 785 339.1670497576352 L 786 346.14388685049676 L 787 354.25870729759447 L 788 363.3461839740947 L 789 373.2211733637956 L 790 383.6824875766876 L 791 394.5169932462229 L 792 405.5039537975121 L 793 416.4195266193177 L 794 427.04132351681403 L 795 437.1529415328347 L 796 446.5483718289947 L 797 455.0361968024569 L 798 462.4434899284609 L 799 468.6193388752672 L 800 473.43792011339195 L 801 476.80106237865493 L 802 478.6402467623823 L 803 478.91800267995865 L 804 477.62867127700025 L 805 474.7985207199073 L 806 470.48521102192365 L 807 464.7766193080616 L 808 457.78904945233364 L 809 449.66486256320206 L 810 440.5695765925121 L 811 430.68849415895664 L 812 420.22292728905 L 813 409.38609599075573 L 814 398.39878422011213 L 815 387.48484174392013 L 816 376.8666235411898 L 817 366.7604596586256 L 818 357.3722478149376 L 819 348.89325854797505 L 820 341.49623836841386 L 821 335.33189031233417 L 822 330.5258035960645 L 823 327.1758949269036 L 824 325.350413599132 L 825 325.0865510184411 L 826 326.38968298360555 L 827 329.2332601627597 L 828 333.559348995656 L 829 339.27981200184263 L 830 346.2781034477823 L 831 354.41164378891807 L 832 363.5147245110468 L 833 373.40188418926704 L 834 383.8716869824502 L 835 394.7108265821385 L 836 405.6984720041601 L 837 416.61076668407804 L 838 427.22538921422404 L 839 437.32608280425484 L 840 446.7070611843482 L 841 455.1772011874772 L 842 462.5639365932574 L 843 468.71677390223033 L 844 473.5103584120352 L 845 476.847028128815 L 846 478.6588034818087 L 847 478.90877230371564 L 848 477.5918418599656 L 849 474.734842605439 L 850 470.39598155475664 L 851 464.6636564028815 L 852 457.6546545565285 L 853 449.5117737683728 L 854 440.40091285002234 L 855 430.5076917360411 L 856 420.03366976009244 L 857 409.1922391900692 L 858 398.2042776851761 L 859 387.2936482495592 L 860 376.6826383640657 L 861 366.58743121690145 L 862 357.2137012999567 L 863 348.75242410384595 L 864 341.37598528274253 L 865 335.23466855884953 L 866 330.4535939201293 L 867 327.13016849084147 L 868 325.3321020095332 L 869 325.09602734609354 L 870 326.42675416274597 L 871 329.2971709244943 L 872 333.6487972554155 L 873 339.39297538737594 L 874 346.41267642721937 L 875 354.56488464247343 L 876 363.68351118939125 L 877 373.58277792053775 L 878 384.0610023319916 L 879 394.904706537631 L 880 405.89296655638236 L 881 416.801913302335 L 882 427.4092935768812 L 883 437.4989981396211 L 884 446.8654646054531 L 885 455.3178654655294 L 886 462.6839959075263 L 887 468.813782226786 L 888 473.5823393498044 L 889 476.8925151776654 L 890 478.6768699123009 L 891 478.8990500398057 L 892 477.55452897799404 L 893 474.6706992986274 L 894 470.306314645426 L 895 464.55029271793495 L 896 457.51990370863336 L 897 449.35838110111405 L 898 440.23200350570085 L 899 430.3267069856543 L 900 419.84429689266983 L 901 408.9983363897697 L 902 398.0097954266504 L 903 387.1025488130379 L 904 376.4988151099272 L 905 366.41462926437214 L 906 357.0554412260061 L 907 348.6119302167833 L 908 341.25611993184145 L 909 335.1378738183322 L 910 330.38184183561935 L 911 327.08492090193374 L 912 325.3142807670345 L 913 325.10599553071563 L 914 326.4643086878879 L 915 329.3615466738227 L 916 333.7386826709464 L 917 339.5065391904741 L 918 346.54760492811425 L 919 354.71842887817184 L 920 363.85254292961514 L 921 373.7638534006603 L 922 384.2504324145009 L 923 395.09863187269883 L 924 406.0874362102465 L 925 416.9929652515644 L 926 427.59303542858106 L 927 437.67168643301477 L 928 447.02358107920395 L 929 455.4581887369622 L 930 462.80366710340223 L 931 468.9103632284962 L 932 473.653862466328 L 933 476.9375232342829 L 934 478.6944459383111 L 935 478.88883595040977 L 936 477.51673286972886 L 937 474.6060912097151 L 938 470.216210867416 L 939 464.4365289782667 L 940 457.3847977704796 L 941 449.20468554248293 L 942 440.0628496398431 L 943 430.14554106532347 L 944 419.65480989796083 L 945 408.8043888300081 L 946 397.8153386883929 L 947 386.9115446565786 L 948 376.3151549544569 L 949 366.2420549062292 L 950 356.89746860527254 L 951 348.4717777853487 L 952 341.13664308233757 L 953 335.0415067098562 L 954 330.31054780144234 L 955 327.04015244957145 L 956 325.2969499856156 L 957 325.1164555085537 L 958 326.5023463188426 L 959 329.42638699901465 L 960 333.82900466736504 L 961 339.62050268481244 L 962 346.6828880875015 L 963 354.8722755139885 L 964 364.02181865063915 L 965 373.9451094715241 L 966 384.4399760184337 L 967 395.29260134704606 L 968 406.28187972197514 L 969 417.18392130985086 L 970 427.77661359416356 L 971 437.84414657997024 L 972 447.18140959432986 L 973 455.5981701043051 L 974 462.92294941549926 L 975 469.006516289654 L 976 473.72492730416405 L 977 476.9820520108088 L 978 478.7115314474279 L 979 478.8781301008545 L 980 477.47845377690396 L 981 474.5410187519185 L 982 470.12567079700705 L 983 464.32236591147824 L 984 457.24933760616597 L 985 449.050688075473 L 986 439.8934523343152 L 987 429.96419513374093 L 988 419.46520998787184 L 989 408.61039775121947 L 990 397.6209087140952 L 991 386.7206370017888 L 992 376.13165907229336 L 993 366.0697092462154 L 994 356.7397844481097 L 995 348.3319677059183 L 996 341.0175554983718 L 997 334.9455678497589 L 998 330.23971227357436 L 999 326.9958634200809 L 1000 325.28010977611973 L 1001 325.1274072127083 L 1002 326.54086681233196 L 1003 329.4916914853694 L 1004 333.9197626669968 L 1005 339.7348651415133 L 1006 346.8185250401483 L 1007 355.0264235659585 L 1008 364.19133726981784 L 1009 374.12654497386546 L 1010 384.62963193152143 L 1011 395.48661372009747 L 1012 406.47629584796357 L 1013 417.3747802558933 L 1014 427.9600268995084 L 1015 438.01637747747526 L 1016 447.3389491414033 L 1017 455.73780867227606 L 1018 463.0418420809207 L 1019 469.10224079529206 L 1020 473.7955334088019 L 1021 477.0261012224482 L 1022 478.7281263303766 L 1023 478.86693255961154 L 1024 477.4396919443419 L 1025 474.4754823414231 L 1026 470.03469501326737 L 1027 464.20780424772414 L 1028 457.113524082062 L 1029 448.8963896850135 L 1030 439.72381267253456 L 1031 429.78267035074407 L 1032 419.27549837503244 L 1033 408.4163643941159 L 1034 397.42650674727656 L 1035 386.5298270696665 L 1036 375.9483286370307 L 1037 365.8975933866048 L 1038 356.5823897630209 L 1039 348.19250087267955 L 1040 340.8988579415947 L 1041 334.8500578516381 L 1042 330.1693357050619 L 1043 326.95205409672394 L 1044 325.2637602462522 L 1045 325.1388505731355 L 1046 326.57986992198926 L 1047 329.5574597152178 L 1048 334.01095608937925 L 1049 339.8496258291429 L 1050 346.9545149185543 L 1051 355.18087204819454 L 1052 364.361097702958 L 1053 374.308158747272 L 1054 384.81939894077846 L 1055 395.6806677510047 L 1056 406.67068334477455 L 1057 417.5655408690053 L 1058 428.14327417155584 L 1059 438.1883780239897 L 1060 447.4961987128439 L 1061 455.8771035477862 L 1062 463.1603443392626 L 1063 469.19753613318034 L 1064 473.8656803286624 L 1065 477.06967058747466 L 1066 478.7442304810211 L 1067 478.8552433982973 L 1068 477.40044761995233 L 1069 474.40948239738134 L 1070 469.9432840980554 L 1071 464.09284471971245 L 1072 456.9773580667926 L 1073 448.7417913579536 L 1074 439.55393173947044 L 1075 429.6009678773141 L 1076 419.0856762727846 L 1077 408.22228999968655 L 1078 397.2321340312836 L 1079 386.33911608057815 L 1080 375.7651648211986 L 1081 365.72570842820386 L 1082 356.4252855566582 L 1083 348.05337817762285 L 1084 340.7805511711664 L 1085 334.7549773263521 L 1086 330.0994185460136 L 1087 326.9087247596924 L 1088 325.2479015005802 L 1089 325.1507855166467 L 1090 326.6193553983616 L 1091 329.6236912679227 L 1092 334.10258435126184 L 1093 339.96478401372417 L 1094 347.0908568529667 L 1095 355.3356199728859 L 1096 364.5310988643198 L 1097 374.4899496301932 L 1098 385.0092758325021 L 1099 395.8747621986464 L 1100 406.86504096916053 L 1101 417.7562019291359 L 1102 428.326354238306 L 1103 438.3601471194465 L 1104 447.65315730292787 L 1105 456.01605383994 L 1106 463.27845543261407 L 1107 469.29240169383667 L 1108 473.93536761510563 L 1109 477.1127598272305 L 1110 478.7598437963637 L 1111 478.8430626916724 L 1112 477.3607210547322 L 1113 474.3430193419124 L 1114 469.85143863600956 L 1115 463.9774880626918 L 1116 456.8408404312388 L 1117 448.58689408306054 L 1118 439.38381062163336 L 1119 429.41908887557497 L 1120 418.8957448951834 L 1121 408.02817580917645 L 1122 397.0377918092694 L 1123 386.1485052542596 L 1124 375.5821687962611 L 1125 365.5540554703403 L 1126 356.26847283382097 L 1127 347.9146005105424 L 1128 340.66263594374357 L 1129 334.66032688200914 L 1130 330.02996124360067 L 1131 326.8658756861086 L 1132 325.23253364053176 L 1133 325.16321196690905 L 1134 326.65932298890976 L 1135 329.69038571988574 L 1136 334.1946468666161 L 1137 340.08033895873655 L 1138 347.22754997138094 L 1139 355.4906663503086 L 1140 364.70133966661797 L 1141 374.67191645994 L 1142 385.1992613922934 L 1143 396.0688958216493 L 1144 407.0593674780628 L 1145 417.9467622168707 L 1146 428.5092659288304 L 1147 438.5316836652533 L 1148 447.80982390778706 L 1149 456.15465866005076 L 1150 463.39617460556974 L 1151 469.3868368705266 L 1152 474.0045948224314 L 1153 477.155368666129 L 1154 478.77496617654566 L 1155 478.8303905176416 L 1156 477.3205125027615 L 1157 474.27609360009524 L 1158 469.7591592145487 L 1159 463.8617350144509 L 1160 456.70397204852884 L 1161 448.4316988510188 L 1162 439.21345040707575 L 1163 429.2370345087734 L 1164 418.70570545697615 L 1165 407.83402306408743 L 1166 396.84348132419194 L 1167 385.95799580980383 L 1168 375.39934173261537 L 1169 365.3826356108638 L 1170 356.1119525974392 L 1171 347.7761687590211 L 1172 340.54511301348003 L 1173 334.5661071239666 L 1174 329.96096424205246 L 1175 326.8235071500246 L 1176 325.2176567643959 L 1177 325.17612984444645 L 1178 326.6997724380123 L 1179 329.75754264454724 L 1180 334.2871430466362 L 1181 340.1962899251233 L 1182 347.3645933995418 L 1183 355.64601018882445 L 1184 364.8718190210405 L 1185 374.85405807270365 L 1186 385.3893544050562 L 1187 396.26306737838945 L 1188 407.25366162862383 L 1189 418.1372205134335 L 1190 428.6920080732713 L 1191 438.7029865643107 L 1192 447.9661975254261 L 1193 456.29291712163956 L 1194 463.51350110523117 L 1195 469.48084105926955 L 1196 474.0733615078797 L 1197 477.1974968316546 L 1198 478.7895975248484 L 1199 478.8172269572525 L 1200 477.2798222212031 L 1201 474.2087055999681 L 1202 469.6664464238657 L 1203 463.74558631531744 L 1204 456.56675379403885 L 1205 448.2762066544132 L 1206 439.0428521853734 L 1207 429.05480594127977 L 1208 418.5155591736017 L 1209 407.6398330061656 L 1210 396.6492038188128 L 1211 385.76758896566196 L 1212 375.2166847995717 L 1213 365.21144994612735 L 1214 355.9557258485739 L 1215 347.6380838084293 L 1216 340.42798313201934 L 1217 334.4723186548308 L 1218 329.8924279826566 L 1219 326.7816194224175 L 1220 325.2032709673208 L 1221 325.1895390666396 L 1222 326.7407034869659 L 1223 329.8251616123905 L 1224 334.3800722997395 L 1225 340.3126361712909 L 1226 347.5019862609581 L 1227 355.8016504948981 L 1228 365.04253583724756 L 1229 375.036373303558 L 1230 385.5795536550092 L 1231 396.45727562699386 L 1232 407.44792217818656 L 1233 418.3275756007067 L 1234 428.87457950286165 L 1235 438.8740547210118 L 1236 448.1222771557234 L 1237 456.4308283404443 L 1238 463.6304341812071 L 1239 469.5744136588379 L 1240 474.1416672316383 L 1241 477.23914405436744 L 1242 478.80373774769373 L 1243 478.80357209469554 L 1244 477.2386504703007 L 1245 474.1408557725277 L 1246 469.5733008569287 L 1247 463.6290427081457 L 1248 456.42918654537806 L 1249 448.1204184877298 L 1250 438.87201704762447 L 1251 428.87240433857664 L 1252 418.3253072611882 L 1253 407.4456068774023 L 1254 396.45496053567604 L 1255 385.57728593962236 L 1256 375.03419916535427 L 1257 365.0404995709861 L 1258 355.7997935864072 L 1259 347.500346541924 L 1260 340.31124704849503 L 1261 334.3789620744462 L 1262 329.8243529037516 L 1263 326.74021277119 L 1264 325.1893763413142 L 1265 325.203439547727 L 1266 326.78211587398584 L 1267 329.8932421909414 L 1268 334.47343403157663 L 1269 340.4293769531214 L 1270 347.6397276769025 L 1271 355.9575862730982 L 1272 365.2134890233826 L 1273 375.21886098646 L 1274 385.76985792568524 L 1275 396.65151932536145 L 1276 407.6421478843153 L 1277 418.5178262612308 L 1278 429.0569790499259 L 1279 439.044887041253 L 1280 448.27806180043245 L 1281 456.568391434419 L 1282 463.74697308562656 L 1283 469.66755407076784 L 1284 474.20951155684213 L 1285 477.28031006790366 L 1286 478.81738675464493 L 1287 478.78942601730387 L 1288 477.19699751337845 L 1289 474.07254455172256 L 1290 469.47972310947046 L 1291 463.512104938317 L 1292 456.29127118238785 L 1293 447.9643353473457 L 1294 438.7009460864479 L 1295 428.6898308672593 L 1296 418.1349509365333 L 1297 407.25134592001314 L 1298 396.26075271710914 L 1299 385.3870879488096 L 1300 374.8518859970897 L 1301 364.8697855787963 L 1302 355.64415680824317 L 1303 347.3629578404339 L 1304 340.19490550951826 L 1305 334.28603797989626 L 1306 329.7567394407266 L 1307 326.69928746116716 L 1308 325.17597297524253 L 1309 325.2178311988045 L 1310 326.82400933421013 L 1311 329.9617839447758 L 1312 334.5672276450315 L 1313 340.5465115239739 L 1314 347.7778167664197 L 1315 356.11381652609816 L 1316 365.3846774860715 L 1317 375.40151995427 L 1318 385.96026599995196 L 1319 396.84579723116207 L 1320 407.8363375047973 L 1321 418.7079712782163 L 1322 429.2392055478821 L 1323 439.21548243243313 L 1324 448.4335504631987 L 1325 456.7056055237491 L 1326 463.86311707313837 L 1327 469.7602616993595 L 1328 474.27689404957823 L 1329 477.3209946089757 L 1330 478.8305444584062 L 1331 478.77478881555174 L 1332 477.154863616837 L 1333 474.00377237445264 L 1334 469.3857137799877 L 1335 463.39477375373235 L 1336 456.1530085871405 L 1337 447.8079582315299 L 1338 438.52964039596543 L 1339 428.5070866950161 L 1340 417.9444914171045 L 1341 407.0570513764362 L 1342 396.06658160521044 L 1343 385.19699620968265 L 1344 374.66974646080786 L 1345 364.69930906139643 L 1346 355.48881650949073 L 1347 347.22591858266 L 1348 340.07895925917654 L 1349 334.1935469654972 L 1350 329.6895880260204 L 1351 326.6588437540973 L 1352 325.1630609548299 L 1353 325.2327139278273 L 1354 326.8663835996995 L 1355 330.03078643551993 L 1356 334.6614525402264 L 1357 340.6640391346847 L 1358 347.9162526463261 L 1359 356.27034025469334 L 1360 365.5561001304412 L 1361 375.5843490387507 L 1362 386.1507766600131 L 1363 397.0401081018491 L 1364 408.03048979764395 L 1365 418.8980094355429 L 1366 429.42125783126085 L 1367 439.38583980347227 L 1368 448.5887421495587 L 1369 456.8424697308519 L 1370 463.9788654009183 L 1371 469.8525359516779 L 1372 474.3438142788847 L 1373 477.36119741737673 L 1374 478.8432107748247 L 1375 478.75966058305477 L 1376 477.11224905015285 L 1377 473.9345396805654 L 1378 469.29127346974093 L 1379 463.2770499048128 L 1380 456.0143996439246 L 1381 447.65128814042623 L 1382 438.3581010718018 L 1383 428.3241729906272 L 1384 417.753929921027 L 1385 406.86272448933124 L 1386 395.87244844185017 L 1387 385.00701193801467 L 1388 374.48778172142164 L 1389 364.52907110910803 L 1390 355.3337736836625 L 1391 347.08922964506655 L 1392 339.9634090390334 L 1393 334.1014896227986 L 1394 329.6228990891145 L 1395 326.6188819086468 L 1396 325.1506403626581 L 1397 325.2480876396096 L 1398 326.90923839944014 L 1399 330.100249221851 L 1400 334.7561081145224 L 1401 340.7819590335804 L 1402 348.055034431225 L 1403 356.42715645780044 L 1404 365.72775586012085 L 1405 375.7673470705789 L 1406 386.3413886874097 L 1407 397.2344506946585 L 1408 408.224603521112 L 1409 419.08793951778017 L 1410 429.6031347357051 L 1411 439.5559580648128 L 1412 448.7436358669502 L 1413 456.978983180378 L 1414 464.09421732866895 L 1415 469.9443762375631 L 1416 474.41027181675884 L 1417 477.4009182359804 L 1418 478.85538562289014 L 1419 478.74404141656885 L 1420 477.06915408587815 L 1421 473.86484691285597 L 1422 469.1964027827436 L 1423 463.158934144487 L 1424 455.87544523924544 L 1425 447.49432607605246 L 1426 438.1863292110741 L 1427 428.14109092396325 L 1428 417.5632676670849 L 1429 406.6683665015582 L 1430 395.6783544686492 L 1431 384.8171363488936 L 1432 374.3059929427262 L 1433 364.359072810725 L 1434 355.179029322374 L 1435 346.95289190188214 L 1436 339.84825558811536 L 1437 334.00986654057334 L 1438 329.5566730565333 L 1439 326.5794021804004 L 1440 325.1387112781659 L 1441 325.26395223582495 L 1442 326.9525734593434 L 1443 330.17017185950476 L 1444 334.8511937625292 L 1445 340.90027046647725 L 1446 348.1941612335073 L 1447 356.5842641324673 L 1448 365.89964357724307 L 1449 375.9505128793447 L 1450 386.5321008630411 L 1451 397.4288237666299 L 1452 408.4186774337026 L 1453 419.27776031018885 L 1454 429.78483509798156 L 1455 439.7258361284205 L 1456 448.89823062471163 L 1457 457.11514499922583 L 1458 464.2091721186318 L 1459 470.0357819696294 L 1460 474.4762662381568 L 1461 477.4401568107436 L 1462 478.86706892473524 L 1463 478.7279314159903 L 1464 477.0255789996361 L 1465 473.7946945170596 L 1466 469.1011023257629 L 1467 463.04042722818986 L 1468 455.73614626181603 L 1469 447.3370730422989 L 1470 438.01432591239245 L 1471 427.9578416659655 L 1472 417.37250587470015 L 1473 406.47397865617796 L 1474 395.4843009269778 L 1475 384.62737065671007 L 1476 374.1243812873975 L 1477 364.18931525351434 L 1478 355.02458441532633 L 1479 346.8169062250845 L 1480 339.7334996429127 L 1481 333.91867830481664 L 1482 329.49091035183983 L 1483 326.5404048218607 L 1484 325.12727377764855 L 1485 325.28030761500787 L 1486 326.9963885022505 L 1487 330.2405539012748 L 1488 334.9467088761058 L 1489 341.01897267668875 L 1490 348.3336321633525 L 1491 356.7416622738723 L 1492 366.07176218246246 L 1493 376.1338452935712 L 1494 386.7229119671639 L 1495 397.62322607460794 L 1496 408.61271029417395 L 1497 419.46747059872246 L 1498 429.96635775597974 L 1499 439.89547290780325 L 1500 449.05252543409847 L 1501 457.25095431654137 L 1502 464.3237290355885 L 1503 470.12675256327157 L 1504 474.5417971209949 L 1505 477.47891289070617 L 1506 478.87826060563697 L 1507 478.71133068435415 L 1508 476.9815240701212 L 1509 473.7240829418512 L 1510 469.00537270831376 L 1511 462.9215299138622 L 1512 455.5965036025582 L 1513 447.17953004491164 L 1514 437.8420922758414 L 1515 427.7744263886465 L 1516 417.18164576393133 L 1517 406.27956219644045 L 1518 395.2902890579543 L 1519 384.43771607515833 L 1520 373.9429479169723 L 1521 364.0197995231973 L 1522 354.8704399503074 L 1523 346.6812734843996 L 1524 339.6191419373721 L 1525 333.82792549874586 L 1526 329.425611395636 L 1527 326.50189008244365 L 1528 325.1163279342572 L 1529 325.2971536725538 L 1530 327.0406832479328 L 1531 330.3113948970175 L 1532 335.04265284436127 L 1533 341.13806490502503 L 1534 348.4734463287438 L 1535 356.8993498753412 L 1536 366.2441105749551 L 1537 376.3173431407161 L 1538 386.9138207794041 L 1539 397.81765637524387" stroke-linecap="round" stroke-linejoin="round" stroke-miterlimit="10" stroke-width="8"/></g></svg>
